<mxfile host="app.diagrams.net" modified="2023-04-17T15:31:40.776Z" agent="Mozilla/5.0 (Windows NT 10.0; Win64; x64) AppleWebKit/537.36 (KHTML, like Gecko) Chrome/112.0.0.0 Safari/537.36" etag="jWCuE5Wlru_xHZLjxxja" version="21.1.4" type="device">
  <diagram id="C5RBs43oDa-KdzZeNtuy" name="Page-1">
    <mxGraphModel dx="2501" dy="1925" grid="1" gridSize="10" guides="1" tooltips="1" connect="1" arrows="1" fold="1" page="1" pageScale="1" pageWidth="827" pageHeight="1169" background="#ffffff" math="0" shadow="0">
      <root>
        <mxCell id="WIyWlLk6GJQsqaUBKTNV-0" />
        <mxCell id="WIyWlLk6GJQsqaUBKTNV-1" parent="WIyWlLk6GJQsqaUBKTNV-0" />
        <mxCell id="LDNh3qtt35xQRDf_pYE4-13" value="User" style="swimlane;fontStyle=1;align=center;verticalAlign=top;childLayout=stackLayout;horizontal=1;startSize=26;horizontalStack=0;resizeParent=1;resizeParentMax=0;resizeLast=0;collapsible=1;marginBottom=0;whiteSpace=wrap;html=1;" parent="WIyWlLk6GJQsqaUBKTNV-1" vertex="1">
          <mxGeometry x="-1.1379786002407855e-15" y="-190" width="160" height="234" as="geometry" />
        </mxCell>
        <mxCell id="LDNh3qtt35xQRDf_pYE4-14" value="&lt;font style=&quot;vertical-align: inherit;&quot;&gt;&lt;font style=&quot;vertical-align: inherit;&quot;&gt;&lt;font style=&quot;vertical-align: inherit;&quot;&gt;&lt;font style=&quot;vertical-align: inherit;&quot;&gt;id : Int&lt;/font&gt;&lt;/font&gt;&lt;/font&gt;&lt;/font&gt;" style="text;strokeColor=none;fillColor=none;align=left;verticalAlign=top;spacingLeft=4;spacingRight=4;overflow=hidden;rotatable=0;points=[[0,0.5],[1,0.5]];portConstraint=eastwest;whiteSpace=wrap;html=1;" parent="LDNh3qtt35xQRDf_pYE4-13" vertex="1">
          <mxGeometry y="26" width="160" height="26" as="geometry" />
        </mxCell>
        <mxCell id="LDNh3qtt35xQRDf_pYE4-23" value="firstName : String" style="text;strokeColor=none;fillColor=none;align=left;verticalAlign=top;spacingLeft=4;spacingRight=4;overflow=hidden;rotatable=0;points=[[0,0.5],[1,0.5]];portConstraint=eastwest;whiteSpace=wrap;html=1;" parent="LDNh3qtt35xQRDf_pYE4-13" vertex="1">
          <mxGeometry y="52" width="160" height="26" as="geometry" />
        </mxCell>
        <mxCell id="LDNh3qtt35xQRDf_pYE4-24" value="dateCreateAccount : Date" style="text;strokeColor=none;fillColor=none;align=left;verticalAlign=top;spacingLeft=4;spacingRight=4;overflow=hidden;rotatable=0;points=[[0,0.5],[1,0.5]];portConstraint=eastwest;whiteSpace=wrap;html=1;" parent="LDNh3qtt35xQRDf_pYE4-13" vertex="1">
          <mxGeometry y="78" width="160" height="26" as="geometry" />
        </mxCell>
        <mxCell id="LDNh3qtt35xQRDf_pYE4-25" value="phoneNumber : String" style="text;strokeColor=none;fillColor=none;align=left;verticalAlign=top;spacingLeft=4;spacingRight=4;overflow=hidden;rotatable=0;points=[[0,0.5],[1,0.5]];portConstraint=eastwest;whiteSpace=wrap;html=1;" parent="LDNh3qtt35xQRDf_pYE4-13" vertex="1">
          <mxGeometry y="104" width="160" height="26" as="geometry" />
        </mxCell>
        <mxCell id="LDNh3qtt35xQRDf_pYE4-26" value="username : String" style="text;strokeColor=none;fillColor=none;align=left;verticalAlign=top;spacingLeft=4;spacingRight=4;overflow=hidden;rotatable=0;points=[[0,0.5],[1,0.5]];portConstraint=eastwest;whiteSpace=wrap;html=1;" parent="LDNh3qtt35xQRDf_pYE4-13" vertex="1">
          <mxGeometry y="130" width="160" height="26" as="geometry" />
        </mxCell>
        <mxCell id="LDNh3qtt35xQRDf_pYE4-27" value="password : String" style="text;strokeColor=none;fillColor=none;align=left;verticalAlign=top;spacingLeft=4;spacingRight=4;overflow=hidden;rotatable=0;points=[[0,0.5],[1,0.5]];portConstraint=eastwest;whiteSpace=wrap;html=1;" parent="LDNh3qtt35xQRDf_pYE4-13" vertex="1">
          <mxGeometry y="156" width="160" height="26" as="geometry" />
        </mxCell>
        <mxCell id="LDNh3qtt35xQRDf_pYE4-28" value="email : String" style="text;strokeColor=none;fillColor=none;align=left;verticalAlign=top;spacingLeft=4;spacingRight=4;overflow=hidden;rotatable=0;points=[[0,0.5],[1,0.5]];portConstraint=eastwest;whiteSpace=wrap;html=1;" parent="LDNh3qtt35xQRDf_pYE4-13" vertex="1">
          <mxGeometry y="182" width="160" height="26" as="geometry" />
        </mxCell>
        <mxCell id="oYY13Tbm00uSLunCZj7H-6" value="lastName : String" style="text;strokeColor=none;fillColor=none;align=left;verticalAlign=top;spacingLeft=4;spacingRight=4;overflow=hidden;rotatable=0;points=[[0,0.5],[1,0.5]];portConstraint=eastwest;whiteSpace=wrap;html=1;" parent="LDNh3qtt35xQRDf_pYE4-13" vertex="1">
          <mxGeometry y="208" width="160" height="26" as="geometry" />
        </mxCell>
        <mxCell id="LDNh3qtt35xQRDf_pYE4-29" value="PointOfSale" style="swimlane;fontStyle=1;align=center;verticalAlign=top;childLayout=stackLayout;horizontal=1;startSize=26;horizontalStack=0;resizeParent=1;resizeParentMax=0;resizeLast=0;collapsible=1;marginBottom=0;whiteSpace=wrap;html=1;" parent="WIyWlLk6GJQsqaUBKTNV-1" vertex="1">
          <mxGeometry x="520" y="490" width="160" height="104" as="geometry" />
        </mxCell>
        <mxCell id="LDNh3qtt35xQRDf_pYE4-30" value="id : Int" style="text;strokeColor=none;fillColor=none;align=left;verticalAlign=top;spacingLeft=4;spacingRight=4;overflow=hidden;rotatable=0;points=[[0,0.5],[1,0.5]];portConstraint=eastwest;whiteSpace=wrap;html=1;" parent="LDNh3qtt35xQRDf_pYE4-29" vertex="1">
          <mxGeometry y="26" width="160" height="26" as="geometry" />
        </mxCell>
        <mxCell id="LDNh3qtt35xQRDf_pYE4-33" value="namePointOfSale : String" style="text;strokeColor=none;fillColor=none;align=left;verticalAlign=top;spacingLeft=4;spacingRight=4;overflow=hidden;rotatable=0;points=[[0,0.5],[1,0.5]];portConstraint=eastwest;whiteSpace=wrap;html=1;" parent="LDNh3qtt35xQRDf_pYE4-29" vertex="1">
          <mxGeometry y="52" width="160" height="26" as="geometry" />
        </mxCell>
        <mxCell id="LDNh3qtt35xQRDf_pYE4-34" value="siret : Integer" style="text;strokeColor=none;fillColor=none;align=left;verticalAlign=top;spacingLeft=4;spacingRight=4;overflow=hidden;rotatable=0;points=[[0,0.5],[1,0.5]];portConstraint=eastwest;whiteSpace=wrap;html=1;" parent="LDNh3qtt35xQRDf_pYE4-29" vertex="1">
          <mxGeometry y="78" width="160" height="26" as="geometry" />
        </mxCell>
        <mxCell id="LDNh3qtt35xQRDf_pYE4-35" value="" style="endArrow=none;html=1;edgeStyle=orthogonalEdgeStyle;rounded=0;entryX=0.5;entryY=0;entryDx=0;entryDy=0;exitX=1;exitY=0.25;exitDx=0;exitDy=0;" parent="WIyWlLk6GJQsqaUBKTNV-1" source="ayJBxSCO4M2eOkXbulN4-0" target="LDNh3qtt35xQRDf_pYE4-29" edge="1">
          <mxGeometry relative="1" as="geometry">
            <mxPoint x="350" y="253" as="sourcePoint" />
            <mxPoint x="600" y="130" as="targetPoint" />
            <Array as="points">
              <mxPoint x="320" y="253" />
              <mxPoint x="640" y="253" />
              <mxPoint x="640" y="490" />
            </Array>
          </mxGeometry>
        </mxCell>
        <mxCell id="LDNh3qtt35xQRDf_pYE4-38" value="Work" style="edgeLabel;html=1;align=center;verticalAlign=middle;resizable=0;points=[];" parent="LDNh3qtt35xQRDf_pYE4-35" connectable="0" vertex="1">
          <mxGeometry x="0.76" relative="1" as="geometry">
            <mxPoint y="-41" as="offset" />
          </mxGeometry>
        </mxCell>
        <mxCell id="LDNh3qtt35xQRDf_pYE4-39" value="1" style="edgeLabel;html=1;align=center;verticalAlign=middle;resizable=0;points=[];" parent="LDNh3qtt35xQRDf_pYE4-35" connectable="0" vertex="1">
          <mxGeometry x="0.8954" relative="1" as="geometry">
            <mxPoint x="10" y="-19" as="offset" />
          </mxGeometry>
        </mxCell>
        <mxCell id="LDNh3qtt35xQRDf_pYE4-40" value="1..*" style="edgeLabel;html=1;align=center;verticalAlign=middle;resizable=0;points=[];" parent="LDNh3qtt35xQRDf_pYE4-35" connectable="0" vertex="1">
          <mxGeometry x="-0.8585" y="-1" relative="1" as="geometry">
            <mxPoint x="-31" y="-13" as="offset" />
          </mxGeometry>
        </mxCell>
        <mxCell id="LDNh3qtt35xQRDf_pYE4-41" value="Address" style="swimlane;fontStyle=0;childLayout=stackLayout;horizontal=1;startSize=26;fillColor=none;horizontalStack=0;resizeParent=1;resizeParentMax=0;resizeLast=0;collapsible=1;marginBottom=0;whiteSpace=wrap;html=1;" parent="WIyWlLk6GJQsqaUBKTNV-1" vertex="1">
          <mxGeometry x="50" y="490" width="220" height="156" as="geometry" />
        </mxCell>
        <mxCell id="LDNh3qtt35xQRDf_pYE4-42" value="id : Int" style="text;strokeColor=none;fillColor=none;align=left;verticalAlign=top;spacingLeft=4;spacingRight=4;overflow=hidden;rotatable=0;points=[[0,0.5],[1,0.5]];portConstraint=eastwest;whiteSpace=wrap;html=1;" parent="LDNh3qtt35xQRDf_pYE4-41" vertex="1">
          <mxGeometry y="26" width="220" height="26" as="geometry" />
        </mxCell>
        <mxCell id="LDNh3qtt35xQRDf_pYE4-43" value="street : String" style="text;strokeColor=none;fillColor=none;align=left;verticalAlign=top;spacingLeft=4;spacingRight=4;overflow=hidden;rotatable=0;points=[[0,0.5],[1,0.5]];portConstraint=eastwest;whiteSpace=wrap;html=1;" parent="LDNh3qtt35xQRDf_pYE4-41" vertex="1">
          <mxGeometry y="52" width="220" height="26" as="geometry" />
        </mxCell>
        <mxCell id="LDNh3qtt35xQRDf_pYE4-44" value="additionalAddress : String" style="text;strokeColor=none;fillColor=none;align=left;verticalAlign=top;spacingLeft=4;spacingRight=4;overflow=hidden;rotatable=0;points=[[0,0.5],[1,0.5]];portConstraint=eastwest;whiteSpace=wrap;html=1;" parent="LDNh3qtt35xQRDf_pYE4-41" vertex="1">
          <mxGeometry y="78" width="220" height="26" as="geometry" />
        </mxCell>
        <mxCell id="LDNh3qtt35xQRDf_pYE4-45" value="postalCode : Integer" style="text;strokeColor=none;fillColor=none;align=left;verticalAlign=top;spacingLeft=4;spacingRight=4;overflow=hidden;rotatable=0;points=[[0,0.5],[1,0.5]];portConstraint=eastwest;whiteSpace=wrap;html=1;" parent="LDNh3qtt35xQRDf_pYE4-41" vertex="1">
          <mxGeometry y="104" width="220" height="26" as="geometry" />
        </mxCell>
        <mxCell id="LDNh3qtt35xQRDf_pYE4-81" value="city : String" style="text;strokeColor=none;fillColor=none;align=left;verticalAlign=top;spacingLeft=4;spacingRight=4;overflow=hidden;rotatable=0;points=[[0,0.5],[1,0.5]];portConstraint=eastwest;whiteSpace=wrap;html=1;" parent="LDNh3qtt35xQRDf_pYE4-41" vertex="1">
          <mxGeometry y="130" width="220" height="26" as="geometry" />
        </mxCell>
        <mxCell id="LDNh3qtt35xQRDf_pYE4-48" value="" style="endArrow=diamondThin;endFill=1;endSize=24;html=1;rounded=0;exitX=1;exitY=0.5;exitDx=0;exitDy=0;entryX=0;entryY=0.5;entryDx=0;entryDy=0;" parent="WIyWlLk6GJQsqaUBKTNV-1" source="LDNh3qtt35xQRDf_pYE4-43" target="LDNh3qtt35xQRDf_pYE4-33" edge="1">
          <mxGeometry width="160" relative="1" as="geometry">
            <mxPoint x="290" y="470" as="sourcePoint" />
            <mxPoint x="450" y="470" as="targetPoint" />
          </mxGeometry>
        </mxCell>
        <mxCell id="LDNh3qtt35xQRDf_pYE4-49" value="1" style="edgeLabel;html=1;align=center;verticalAlign=middle;resizable=0;points=[];" parent="LDNh3qtt35xQRDf_pYE4-48" connectable="0" vertex="1">
          <mxGeometry x="0.8125" relative="1" as="geometry">
            <mxPoint y="20" as="offset" />
          </mxGeometry>
        </mxCell>
        <mxCell id="LDNh3qtt35xQRDf_pYE4-50" value="1" style="edgeLabel;html=1;align=center;verticalAlign=middle;resizable=0;points=[];" parent="LDNh3qtt35xQRDf_pYE4-48" connectable="0" vertex="1">
          <mxGeometry x="-0.875" relative="1" as="geometry">
            <mxPoint y="-20" as="offset" />
          </mxGeometry>
        </mxCell>
        <mxCell id="grewiB0idIYlDIHgvyIB-13" value="&lt;font style=&quot;vertical-align: inherit;&quot;&gt;&lt;font style=&quot;vertical-align: inherit;&quot;&gt;Locate&lt;/font&gt;&lt;/font&gt;" style="edgeLabel;html=1;align=center;verticalAlign=middle;resizable=0;points=[];" parent="LDNh3qtt35xQRDf_pYE4-48" vertex="1" connectable="0">
          <mxGeometry x="-0.144" y="-2" relative="1" as="geometry">
            <mxPoint as="offset" />
          </mxGeometry>
        </mxCell>
        <mxCell id="LDNh3qtt35xQRDf_pYE4-54" value="Order" style="swimlane;fontStyle=0;childLayout=stackLayout;horizontal=1;startSize=26;fillColor=none;horizontalStack=0;resizeParent=1;resizeParentMax=0;resizeLast=0;collapsible=1;marginBottom=0;whiteSpace=wrap;html=1;" parent="WIyWlLk6GJQsqaUBKTNV-1" vertex="1">
          <mxGeometry x="-520" y="196.70999999999998" width="150" height="204" as="geometry" />
        </mxCell>
        <mxCell id="LDNh3qtt35xQRDf_pYE4-55" value="id : Int" style="text;strokeColor=none;fillColor=none;align=left;verticalAlign=top;spacingLeft=4;spacingRight=4;overflow=hidden;rotatable=0;points=[[0,0.5],[1,0.5]];portConstraint=eastwest;whiteSpace=wrap;html=1;" parent="LDNh3qtt35xQRDf_pYE4-54" vertex="1">
          <mxGeometry y="26" width="150" height="26" as="geometry" />
        </mxCell>
        <mxCell id="LDNh3qtt35xQRDf_pYE4-56" value="dateOrder : Datetime" style="text;strokeColor=none;fillColor=none;align=left;verticalAlign=top;spacingLeft=4;spacingRight=4;overflow=hidden;rotatable=0;points=[[0,0.5],[1,0.5]];portConstraint=eastwest;whiteSpace=wrap;html=1;" parent="LDNh3qtt35xQRDf_pYE4-54" vertex="1">
          <mxGeometry y="52" width="150" height="26" as="geometry" />
        </mxCell>
        <mxCell id="LDNh3qtt35xQRDf_pYE4-57" value="dateDelivery : Datetime" style="text;strokeColor=none;fillColor=none;align=left;verticalAlign=top;spacingLeft=4;spacingRight=4;overflow=hidden;rotatable=0;points=[[0,0.5],[1,0.5]];portConstraint=eastwest;whiteSpace=wrap;html=1;" parent="LDNh3qtt35xQRDf_pYE4-54" vertex="1">
          <mxGeometry y="78" width="150" height="22" as="geometry" />
        </mxCell>
        <mxCell id="LDNh3qtt35xQRDf_pYE4-58" value="statusOrder : StatusOrder" style="text;strokeColor=none;fillColor=none;align=left;verticalAlign=top;spacingLeft=4;spacingRight=4;overflow=hidden;rotatable=0;points=[[0,0.5],[1,0.5]];portConstraint=eastwest;whiteSpace=wrap;html=1;" parent="LDNh3qtt35xQRDf_pYE4-54" vertex="1">
          <mxGeometry y="100" width="150" height="26" as="geometry" />
        </mxCell>
        <mxCell id="LDNh3qtt35xQRDf_pYE4-59" value="payMethod : PayMethod" style="text;strokeColor=none;fillColor=none;align=left;verticalAlign=top;spacingLeft=4;spacingRight=4;overflow=hidden;rotatable=0;points=[[0,0.5],[1,0.5]];portConstraint=eastwest;whiteSpace=wrap;html=1;" parent="LDNh3qtt35xQRDf_pYE4-54" vertex="1">
          <mxGeometry y="126" width="150" height="26" as="geometry" />
        </mxCell>
        <mxCell id="LDNh3qtt35xQRDf_pYE4-60" value="amountHT : Float" style="text;strokeColor=none;fillColor=none;align=left;verticalAlign=top;spacingLeft=4;spacingRight=4;overflow=hidden;rotatable=0;points=[[0,0.5],[1,0.5]];portConstraint=eastwest;whiteSpace=wrap;html=1;" parent="LDNh3qtt35xQRDf_pYE4-54" vertex="1">
          <mxGeometry y="152" width="150" height="26" as="geometry" />
        </mxCell>
        <mxCell id="LDNh3qtt35xQRDf_pYE4-61" value="amountTTC : Float" style="text;strokeColor=none;fillColor=none;align=left;verticalAlign=top;spacingLeft=4;spacingRight=4;overflow=hidden;rotatable=0;points=[[0,0.5],[1,0.5]];portConstraint=eastwest;whiteSpace=wrap;html=1;" parent="LDNh3qtt35xQRDf_pYE4-54" vertex="1">
          <mxGeometry y="178" width="150" height="26" as="geometry" />
        </mxCell>
        <mxCell id="LDNh3qtt35xQRDf_pYE4-67" value="" style="endArrow=none;html=1;edgeStyle=orthogonalEdgeStyle;rounded=0;entryX=0;entryY=0.5;entryDx=0;entryDy=0;exitX=1;exitY=0.5;exitDx=0;exitDy=0;" parent="WIyWlLk6GJQsqaUBKTNV-1" source="LDNh3qtt35xQRDf_pYE4-57" target="ayJBxSCO4M2eOkXbulN4-3" edge="1">
          <mxGeometry relative="1" as="geometry">
            <mxPoint x="-270" y="180" as="sourcePoint" />
            <mxPoint x="-80" y="180" as="targetPoint" />
            <Array as="points">
              <mxPoint x="-370" y="288" />
            </Array>
          </mxGeometry>
        </mxCell>
        <mxCell id="LDNh3qtt35xQRDf_pYE4-68" value="1..*" style="edgeLabel;resizable=0;html=1;align=left;verticalAlign=bottom;" parent="LDNh3qtt35xQRDf_pYE4-67" connectable="0" vertex="1">
          <mxGeometry x="-1" relative="1" as="geometry">
            <mxPoint x="10" y="-6" as="offset" />
          </mxGeometry>
        </mxCell>
        <mxCell id="LDNh3qtt35xQRDf_pYE4-69" value="Pizzaiolo" style="edgeLabel;resizable=0;html=1;align=right;verticalAlign=bottom;" parent="LDNh3qtt35xQRDf_pYE4-67" connectable="0" vertex="1">
          <mxGeometry x="1" relative="1" as="geometry">
            <mxPoint x="-10" y="-11" as="offset" />
          </mxGeometry>
        </mxCell>
        <mxCell id="LDNh3qtt35xQRDf_pYE4-70" value="1" style="edgeLabel;html=1;align=center;verticalAlign=middle;resizable=0;points=[];" parent="LDNh3qtt35xQRDf_pYE4-67" connectable="0" vertex="1">
          <mxGeometry x="0.8625" y="-3" relative="1" as="geometry">
            <mxPoint x="27" y="7" as="offset" />
          </mxGeometry>
        </mxCell>
        <mxCell id="LDNh3qtt35xQRDf_pYE4-71" value="Prepare" style="edgeLabel;html=1;align=center;verticalAlign=middle;resizable=0;points=[];" parent="LDNh3qtt35xQRDf_pYE4-67" connectable="0" vertex="1">
          <mxGeometry x="-0.0941" y="1" relative="1" as="geometry">
            <mxPoint x="-4" y="-9" as="offset" />
          </mxGeometry>
        </mxCell>
        <mxCell id="LDNh3qtt35xQRDf_pYE4-72" value="" style="endArrow=none;html=1;edgeStyle=orthogonalEdgeStyle;rounded=0;entryX=0;entryY=0;entryDx=0;entryDy=0;" parent="WIyWlLk6GJQsqaUBKTNV-1" target="ayJBxSCO4M2eOkXbulN4-0" edge="1">
          <mxGeometry relative="1" as="geometry">
            <mxPoint x="-370" y="230" as="sourcePoint" />
            <mxPoint y="-43" as="targetPoint" />
            <Array as="points">
              <mxPoint x="-370" y="230" />
            </Array>
          </mxGeometry>
        </mxCell>
        <mxCell id="LDNh3qtt35xQRDf_pYE4-73" value="1..*" style="edgeLabel;resizable=0;html=1;align=left;verticalAlign=bottom;" parent="LDNh3qtt35xQRDf_pYE4-72" connectable="0" vertex="1">
          <mxGeometry x="-1" relative="1" as="geometry">
            <mxPoint x="10" y="-10" as="offset" />
          </mxGeometry>
        </mxCell>
        <mxCell id="LDNh3qtt35xQRDf_pYE4-74" value="Delivery Man" style="edgeLabel;resizable=0;html=1;align=right;verticalAlign=bottom;" parent="LDNh3qtt35xQRDf_pYE4-72" connectable="0" vertex="1">
          <mxGeometry x="1" relative="1" as="geometry">
            <mxPoint x="-10" y="-7" as="offset" />
          </mxGeometry>
        </mxCell>
        <mxCell id="LDNh3qtt35xQRDf_pYE4-75" value="1" style="edgeLabel;html=1;align=center;verticalAlign=middle;resizable=0;points=[];" parent="LDNh3qtt35xQRDf_pYE4-72" connectable="0" vertex="1">
          <mxGeometry x="0.8625" y="-3" relative="1" as="geometry">
            <mxPoint x="26" y="10" as="offset" />
          </mxGeometry>
        </mxCell>
        <mxCell id="LDNh3qtt35xQRDf_pYE4-76" value="Deliver" style="edgeLabel;html=1;align=center;verticalAlign=middle;resizable=0;points=[];" parent="LDNh3qtt35xQRDf_pYE4-72" connectable="0" vertex="1">
          <mxGeometry x="-0.0941" y="1" relative="1" as="geometry">
            <mxPoint x="-4" y="-9" as="offset" />
          </mxGeometry>
        </mxCell>
        <mxCell id="LDNh3qtt35xQRDf_pYE4-82" value="OrderProduct" style="swimlane;fontStyle=0;childLayout=stackLayout;horizontal=1;startSize=26;fillColor=none;horizontalStack=0;resizeParent=1;resizeParentMax=0;resizeLast=0;collapsible=1;marginBottom=0;whiteSpace=wrap;html=1;" parent="WIyWlLk6GJQsqaUBKTNV-1" vertex="1">
          <mxGeometry x="-700" y="-34" width="140" height="52" as="geometry" />
        </mxCell>
        <mxCell id="LDNh3qtt35xQRDf_pYE4-83" value="quantity : Int" style="text;strokeColor=none;fillColor=none;align=left;verticalAlign=top;spacingLeft=4;spacingRight=4;overflow=hidden;rotatable=0;points=[[0,0.5],[1,0.5]];portConstraint=eastwest;whiteSpace=wrap;html=1;" parent="LDNh3qtt35xQRDf_pYE4-82" vertex="1">
          <mxGeometry y="26" width="140" height="26" as="geometry" />
        </mxCell>
        <mxCell id="LDNh3qtt35xQRDf_pYE4-86" value="Product" style="swimlane;fontStyle=0;childLayout=stackLayout;horizontal=1;startSize=26;fillColor=none;horizontalStack=0;resizeParent=1;resizeParentMax=0;resizeLast=0;collapsible=1;marginBottom=0;whiteSpace=wrap;html=1;" parent="WIyWlLk6GJQsqaUBKTNV-1" vertex="1">
          <mxGeometry x="-510" y="-410" width="140" height="234" as="geometry" />
        </mxCell>
        <mxCell id="LDNh3qtt35xQRDf_pYE4-87" value="id : Int" style="text;strokeColor=none;fillColor=none;align=left;verticalAlign=top;spacingLeft=4;spacingRight=4;overflow=hidden;rotatable=0;points=[[0,0.5],[1,0.5]];portConstraint=eastwest;whiteSpace=wrap;html=1;" parent="LDNh3qtt35xQRDf_pYE4-86" vertex="1">
          <mxGeometry y="26" width="140" height="26" as="geometry" />
        </mxCell>
        <mxCell id="LDNh3qtt35xQRDf_pYE4-88" value="nameProduct : String" style="text;strokeColor=none;fillColor=none;align=left;verticalAlign=top;spacingLeft=4;spacingRight=4;overflow=hidden;rotatable=0;points=[[0,0.5],[1,0.5]];portConstraint=eastwest;whiteSpace=wrap;html=1;" parent="LDNh3qtt35xQRDf_pYE4-86" vertex="1">
          <mxGeometry y="52" width="140" height="26" as="geometry" />
        </mxCell>
        <mxCell id="LDNh3qtt35xQRDf_pYE4-89" value="size : String" style="text;strokeColor=none;fillColor=none;align=left;verticalAlign=top;spacingLeft=4;spacingRight=4;overflow=hidden;rotatable=0;points=[[0,0.5],[1,0.5]];portConstraint=eastwest;whiteSpace=wrap;html=1;" parent="LDNh3qtt35xQRDf_pYE4-86" vertex="1">
          <mxGeometry y="78" width="140" height="26" as="geometry" />
        </mxCell>
        <mxCell id="LDNh3qtt35xQRDf_pYE4-90" value="composition : String" style="text;strokeColor=none;fillColor=none;align=left;verticalAlign=top;spacingLeft=4;spacingRight=4;overflow=hidden;rotatable=0;points=[[0,0.5],[1,0.5]];portConstraint=eastwest;whiteSpace=wrap;html=1;" parent="LDNh3qtt35xQRDf_pYE4-86" vertex="1">
          <mxGeometry y="104" width="140" height="26" as="geometry" />
        </mxCell>
        <mxCell id="LDNh3qtt35xQRDf_pYE4-91" value="category : String" style="text;strokeColor=none;fillColor=none;align=left;verticalAlign=top;spacingLeft=4;spacingRight=4;overflow=hidden;rotatable=0;points=[[0,0.5],[1,0.5]];portConstraint=eastwest;whiteSpace=wrap;html=1;" parent="LDNh3qtt35xQRDf_pYE4-86" vertex="1">
          <mxGeometry y="130" width="140" height="26" as="geometry" />
        </mxCell>
        <mxCell id="LDNh3qtt35xQRDf_pYE4-92" value="unitPriceHT : Float" style="text;strokeColor=none;fillColor=none;align=left;verticalAlign=top;spacingLeft=4;spacingRight=4;overflow=hidden;rotatable=0;points=[[0,0.5],[1,0.5]];portConstraint=eastwest;whiteSpace=wrap;html=1;" parent="LDNh3qtt35xQRDf_pYE4-86" vertex="1">
          <mxGeometry y="156" width="140" height="26" as="geometry" />
        </mxCell>
        <mxCell id="LDNh3qtt35xQRDf_pYE4-93" value="unitPriceTTC : Float" style="text;strokeColor=none;fillColor=none;align=left;verticalAlign=top;spacingLeft=4;spacingRight=4;overflow=hidden;rotatable=0;points=[[0,0.5],[1,0.5]];portConstraint=eastwest;whiteSpace=wrap;html=1;" parent="LDNh3qtt35xQRDf_pYE4-86" vertex="1">
          <mxGeometry y="182" width="140" height="26" as="geometry" />
        </mxCell>
        <mxCell id="LDNh3qtt35xQRDf_pYE4-94" value="recipe : String" style="text;strokeColor=none;fillColor=none;align=left;verticalAlign=top;spacingLeft=4;spacingRight=4;overflow=hidden;rotatable=0;points=[[0,0.5],[1,0.5]];portConstraint=eastwest;whiteSpace=wrap;html=1;" parent="LDNh3qtt35xQRDf_pYE4-86" vertex="1">
          <mxGeometry y="208" width="140" height="26" as="geometry" />
        </mxCell>
        <mxCell id="LDNh3qtt35xQRDf_pYE4-100" value="Ingredient" style="swimlane;fontStyle=0;childLayout=stackLayout;horizontal=1;startSize=26;fillColor=none;horizontalStack=0;resizeParent=1;resizeParentMax=0;resizeLast=0;collapsible=1;marginBottom=0;whiteSpace=wrap;html=1;" parent="WIyWlLk6GJQsqaUBKTNV-1" vertex="1">
          <mxGeometry y="-310" width="140" height="78" as="geometry" />
        </mxCell>
        <mxCell id="LDNh3qtt35xQRDf_pYE4-101" value="id : Int" style="text;strokeColor=none;fillColor=none;align=left;verticalAlign=top;spacingLeft=4;spacingRight=4;overflow=hidden;rotatable=0;points=[[0,0.5],[1,0.5]];portConstraint=eastwest;whiteSpace=wrap;html=1;" parent="LDNh3qtt35xQRDf_pYE4-100" vertex="1">
          <mxGeometry y="26" width="140" height="26" as="geometry" />
        </mxCell>
        <mxCell id="LDNh3qtt35xQRDf_pYE4-102" value="name : String" style="text;strokeColor=none;fillColor=none;align=left;verticalAlign=top;spacingLeft=4;spacingRight=4;overflow=hidden;rotatable=0;points=[[0,0.5],[1,0.5]];portConstraint=eastwest;whiteSpace=wrap;html=1;" parent="LDNh3qtt35xQRDf_pYE4-100" vertex="1">
          <mxGeometry y="52" width="140" height="26" as="geometry" />
        </mxCell>
        <mxCell id="LDNh3qtt35xQRDf_pYE4-107" value="Stock" style="swimlane;fontStyle=0;childLayout=stackLayout;horizontal=1;startSize=26;fillColor=none;horizontalStack=0;resizeParent=1;resizeParentMax=0;resizeLast=0;collapsible=1;marginBottom=0;whiteSpace=wrap;html=1;" parent="WIyWlLk6GJQsqaUBKTNV-1" vertex="1">
          <mxGeometry x="490" y="-330" width="140" height="104" as="geometry" />
        </mxCell>
        <mxCell id="LDNh3qtt35xQRDf_pYE4-108" value="id : Int" style="text;strokeColor=none;fillColor=none;align=left;verticalAlign=top;spacingLeft=4;spacingRight=4;overflow=hidden;rotatable=0;points=[[0,0.5],[1,0.5]];portConstraint=eastwest;whiteSpace=wrap;html=1;" parent="LDNh3qtt35xQRDf_pYE4-107" vertex="1">
          <mxGeometry y="26" width="140" height="26" as="geometry" />
        </mxCell>
        <mxCell id="LDNh3qtt35xQRDf_pYE4-109" value="datePurchase : Date" style="text;strokeColor=none;fillColor=none;align=left;verticalAlign=top;spacingLeft=4;spacingRight=4;overflow=hidden;rotatable=0;points=[[0,0.5],[1,0.5]];portConstraint=eastwest;whiteSpace=wrap;html=1;" parent="LDNh3qtt35xQRDf_pYE4-107" vertex="1">
          <mxGeometry y="52" width="140" height="26" as="geometry" />
        </mxCell>
        <mxCell id="LDNh3qtt35xQRDf_pYE4-110" value="dateExpiration : Date" style="text;strokeColor=none;fillColor=none;align=left;verticalAlign=top;spacingLeft=4;spacingRight=4;overflow=hidden;rotatable=0;points=[[0,0.5],[1,0.5]];portConstraint=eastwest;whiteSpace=wrap;html=1;" parent="LDNh3qtt35xQRDf_pYE4-107" vertex="1">
          <mxGeometry y="78" width="140" height="26" as="geometry" />
        </mxCell>
        <mxCell id="LDNh3qtt35xQRDf_pYE4-114" value="IngredientStock" style="swimlane;fontStyle=0;childLayout=stackLayout;horizontal=1;startSize=26;fillColor=none;horizontalStack=0;resizeParent=1;resizeParentMax=0;resizeLast=0;collapsible=1;marginBottom=0;whiteSpace=wrap;html=1;" parent="WIyWlLk6GJQsqaUBKTNV-1" vertex="1">
          <mxGeometry x="220" y="-464" width="160" height="80" as="geometry" />
        </mxCell>
        <mxCell id="LDNh3qtt35xQRDf_pYE4-115" value="quantityRemaining : Int" style="text;strokeColor=none;fillColor=none;align=left;verticalAlign=top;spacingLeft=4;spacingRight=4;overflow=hidden;rotatable=0;points=[[0,0.5],[1,0.5]];portConstraint=eastwest;whiteSpace=wrap;html=1;" parent="LDNh3qtt35xQRDf_pYE4-114" vertex="1">
          <mxGeometry y="26" width="160" height="54" as="geometry" />
        </mxCell>
        <mxCell id="LDNh3qtt35xQRDf_pYE4-116" value="unit : String" style="text;strokeColor=none;fillColor=none;align=left;verticalAlign=top;spacingLeft=4;spacingRight=4;overflow=hidden;rotatable=0;points=[[0,0.5],[1,0.5]];portConstraint=eastwest;whiteSpace=wrap;html=1;" parent="WIyWlLk6GJQsqaUBKTNV-1" vertex="1">
          <mxGeometry x="220" y="-412" width="160" height="24" as="geometry" />
        </mxCell>
        <mxCell id="b1AOF0Mdmnq1jwFk48a5-0" value="" style="endArrow=none;html=1;edgeStyle=orthogonalEdgeStyle;rounded=0;entryX=0.25;entryY=0;entryDx=0;entryDy=0;exitX=1;exitY=0.5;exitDx=0;exitDy=0;" parent="WIyWlLk6GJQsqaUBKTNV-1" source="ayJBxSCO4M2eOkXbulN4-3" target="LDNh3qtt35xQRDf_pYE4-29" edge="1">
          <mxGeometry relative="1" as="geometry">
            <mxPoint x="370" y="330" as="sourcePoint" />
            <mxPoint x="510" y="460" as="targetPoint" />
            <Array as="points">
              <mxPoint x="560" y="288" />
            </Array>
          </mxGeometry>
        </mxCell>
        <mxCell id="b1AOF0Mdmnq1jwFk48a5-2" value="Manage" style="edgeLabel;html=1;align=center;verticalAlign=middle;resizable=0;points=[];" parent="b1AOF0Mdmnq1jwFk48a5-0" connectable="0" vertex="1">
          <mxGeometry x="0.76" relative="1" as="geometry">
            <mxPoint y="-19" as="offset" />
          </mxGeometry>
        </mxCell>
        <mxCell id="b1AOF0Mdmnq1jwFk48a5-3" value="1" style="edgeLabel;html=1;align=center;verticalAlign=middle;resizable=0;points=[];" parent="b1AOF0Mdmnq1jwFk48a5-0" connectable="0" vertex="1">
          <mxGeometry x="0.8954" relative="1" as="geometry">
            <mxPoint x="10" y="12" as="offset" />
          </mxGeometry>
        </mxCell>
        <mxCell id="b1AOF0Mdmnq1jwFk48a5-4" value="1" style="edgeLabel;html=1;align=center;verticalAlign=middle;resizable=1;points=[];movable=1;rotatable=1;deletable=1;editable=1;locked=0;connectable=1;" parent="b1AOF0Mdmnq1jwFk48a5-0" connectable="0" vertex="1">
          <mxGeometry x="-0.8585" y="-1" relative="1" as="geometry">
            <mxPoint x="-20" y="-19" as="offset" />
          </mxGeometry>
        </mxCell>
        <mxCell id="oYY13Tbm00uSLunCZj7H-5" value="&lt;font style=&quot;vertical-align: inherit;&quot;&gt;&lt;font style=&quot;vertical-align: inherit;&quot;&gt;Manager&lt;/font&gt;&lt;/font&gt;" style="edgeLabel;html=1;align=center;verticalAlign=middle;resizable=0;points=[];" parent="b1AOF0Mdmnq1jwFk48a5-0" vertex="1" connectable="0">
          <mxGeometry x="-0.944" y="2" relative="1" as="geometry">
            <mxPoint x="19" y="14" as="offset" />
          </mxGeometry>
        </mxCell>
        <mxCell id="jd4svYWK1x0lvtQsKngE-0" value="Client" style="swimlane;fontStyle=0;childLayout=stackLayout;horizontal=1;startSize=26;fillColor=none;horizontalStack=0;resizeParent=1;resizeParentMax=0;resizeLast=0;collapsible=1;marginBottom=0;whiteSpace=wrap;html=1;" parent="WIyWlLk6GJQsqaUBKTNV-1" vertex="1">
          <mxGeometry x="-110.33" y="360.27" width="140" height="52" as="geometry" />
        </mxCell>
        <mxCell id="ayJBxSCO4M2eOkXbulN4-0" value="Employee" style="swimlane;fontStyle=0;childLayout=stackLayout;horizontal=1;startSize=26;fillColor=none;horizontalStack=0;resizeParent=1;resizeParentMax=0;resizeLast=0;collapsible=1;marginBottom=0;whiteSpace=wrap;html=1;movable=1;resizable=1;rotatable=1;deletable=1;editable=1;locked=0;connectable=1;" parent="WIyWlLk6GJQsqaUBKTNV-1" vertex="1">
          <mxGeometry x="167.98000000000002" y="229.71" width="140" height="90" as="geometry" />
        </mxCell>
        <mxCell id="ayJBxSCO4M2eOkXbulN4-3" value="&lt;font style=&quot;vertical-align: inherit;&quot;&gt;&lt;font style=&quot;vertical-align: inherit;&quot;&gt;rôle : Rôle&lt;/font&gt;&lt;/font&gt;" style="text;strokeColor=none;fillColor=none;align=left;verticalAlign=top;spacingLeft=4;spacingRight=4;overflow=hidden;rotatable=1;points=[[0,0.5],[1,0.5]];portConstraint=eastwest;whiteSpace=wrap;html=1;movable=1;resizable=1;deletable=1;editable=1;locked=0;connectable=1;" parent="ayJBxSCO4M2eOkXbulN4-0" vertex="1">
          <mxGeometry y="26" width="140" height="64" as="geometry" />
        </mxCell>
        <mxCell id="ayJBxSCO4M2eOkXbulN4-4" value="" style="endArrow=block;endSize=16;endFill=0;html=1;rounded=0;exitX=0.5;exitY=0;exitDx=0;exitDy=0;entryX=0.74;entryY=1.064;entryDx=0;entryDy=0;entryPerimeter=0;" parent="WIyWlLk6GJQsqaUBKTNV-1" source="ayJBxSCO4M2eOkXbulN4-0" target="oYY13Tbm00uSLunCZj7H-6" edge="1">
          <mxGeometry width="160" relative="1" as="geometry">
            <mxPoint x="180" y="200" as="sourcePoint" />
            <mxPoint x="90" y="40" as="targetPoint" />
            <Array as="points" />
          </mxGeometry>
        </mxCell>
        <mxCell id="ayJBxSCO4M2eOkXbulN4-5" value="" style="endArrow=block;endSize=16;endFill=0;html=1;rounded=0;exitX=0.5;exitY=0;exitDx=0;exitDy=0;entryX=0.323;entryY=1.167;entryDx=0;entryDy=0;entryPerimeter=0;" parent="WIyWlLk6GJQsqaUBKTNV-1" source="jd4svYWK1x0lvtQsKngE-0" target="oYY13Tbm00uSLunCZj7H-6" edge="1">
          <mxGeometry width="160" relative="1" as="geometry">
            <mxPoint x="-30" y="160" as="sourcePoint" />
            <mxPoint x="80" y="100" as="targetPoint" />
            <Array as="points" />
          </mxGeometry>
        </mxCell>
        <mxCell id="ayJBxSCO4M2eOkXbulN4-6" value="&lt;p style=&quot;margin:0px;margin-top:4px;text-align:center;&quot;&gt;&lt;i&gt;&amp;lt;&amp;lt;enumeration&amp;gt;&amp;gt;&lt;/i&gt;&lt;br&gt;&lt;b&gt;PayMethod&lt;/b&gt;&lt;/p&gt;&lt;hr size=&quot;1&quot;&gt;&lt;p style=&quot;margin:0px;margin-left:4px;&quot;&gt;Credit Card&lt;/p&gt;&lt;p style=&quot;margin:0px;margin-left:4px;&quot;&gt;Cash&lt;br&gt;&lt;br&gt;&lt;/p&gt;&lt;p style=&quot;margin:0px;margin-left:4px;&quot;&gt;&lt;br&gt;&lt;/p&gt;" style="verticalAlign=top;align=left;overflow=fill;fontSize=12;fontFamily=Helvetica;html=1;whiteSpace=wrap;movable=1;resizable=1;rotatable=1;deletable=1;editable=1;locked=0;connectable=1;" parent="WIyWlLk6GJQsqaUBKTNV-1" vertex="1">
          <mxGeometry x="-780" y="192.71" width="190" height="86" as="geometry" />
        </mxCell>
        <mxCell id="ayJBxSCO4M2eOkXbulN4-9" value="" style="endArrow=open;endFill=1;endSize=12;html=1;rounded=0;exitX=1;exitY=0.5;exitDx=0;exitDy=0;entryX=0;entryY=0.5;entryDx=0;entryDy=0;" parent="WIyWlLk6GJQsqaUBKTNV-1" source="ayJBxSCO4M2eOkXbulN4-6" target="LDNh3qtt35xQRDf_pYE4-55" edge="1">
          <mxGeometry width="160" relative="1" as="geometry">
            <mxPoint x="-530" y="110" as="sourcePoint" />
            <mxPoint x="-470" y="200" as="targetPoint" />
          </mxGeometry>
        </mxCell>
        <mxCell id="ayJBxSCO4M2eOkXbulN4-11" value="&lt;p style=&quot;margin:0px;margin-top:4px;text-align:center;&quot;&gt;&lt;i&gt;&amp;lt;&amp;lt;enumeration&amp;gt;&amp;gt;&lt;/i&gt;&lt;br&gt;&lt;b&gt;StatusOrder&lt;/b&gt;&lt;/p&gt;&lt;hr size=&quot;1&quot;&gt;&lt;p style=&quot;margin:0px;margin-left:4px;&quot;&gt;Created&lt;/p&gt;&lt;p style=&quot;margin:0px;margin-left:4px;&quot;&gt;In preparation&lt;/p&gt;&lt;p style=&quot;margin:0px;margin-left:4px;&quot;&gt;In the course of delivery&lt;/p&gt;&lt;p style=&quot;margin:0px;margin-left:4px;&quot;&gt;Delivered&lt;br&gt;&lt;/p&gt;&lt;p style=&quot;margin:0px;margin-left:4px;&quot;&gt;Cancel&lt;/p&gt;&lt;p style=&quot;margin:0px;margin-left:4px;&quot;&gt;&lt;br&gt;&lt;/p&gt;&lt;p style=&quot;margin:0px;margin-left:4px;&quot;&gt;&lt;br&gt;&lt;/p&gt;&lt;p style=&quot;margin:0px;margin-left:4px;&quot;&gt;&lt;br&gt;&lt;/p&gt;&lt;p style=&quot;margin:0px;margin-left:4px;&quot;&gt;&lt;br&gt;&lt;/p&gt;" style="verticalAlign=top;align=left;overflow=fill;fontSize=12;fontFamily=Helvetica;html=1;whiteSpace=wrap;movable=1;resizable=1;rotatable=1;deletable=1;editable=1;locked=0;connectable=1;" parent="WIyWlLk6GJQsqaUBKTNV-1" vertex="1">
          <mxGeometry x="-780" y="294.71" width="190" height="134" as="geometry" />
        </mxCell>
        <mxCell id="ayJBxSCO4M2eOkXbulN4-12" value="" style="endArrow=open;endFill=1;endSize=12;html=1;rounded=0;exitX=1;exitY=0.5;exitDx=0;exitDy=0;entryX=0;entryY=0.5;entryDx=0;entryDy=0;" parent="WIyWlLk6GJQsqaUBKTNV-1" source="ayJBxSCO4M2eOkXbulN4-11" target="LDNh3qtt35xQRDf_pYE4-60" edge="1">
          <mxGeometry width="160" relative="1" as="geometry">
            <mxPoint x="-540" y="106" as="sourcePoint" />
            <mxPoint x="-420" y="179" as="targetPoint" />
          </mxGeometry>
        </mxCell>
        <mxCell id="ayJBxSCO4M2eOkXbulN4-13" value="&lt;p style=&quot;margin:0px;margin-top:4px;text-align:center;&quot;&gt;&lt;i&gt;&amp;lt;&amp;lt;enumeration&amp;gt;&amp;gt;&lt;/i&gt;&lt;br&gt;&lt;b&gt;Role&lt;/b&gt;&lt;/p&gt;&lt;hr size=&quot;1&quot;&gt;&lt;p style=&quot;margin:0px;margin-left:4px;&quot;&gt;Manager&lt;/p&gt;&lt;p style=&quot;margin:0px;margin-left:4px;&quot;&gt;Pizzaiolo&lt;/p&gt;&lt;p style=&quot;margin:0px;margin-left:4px;&quot;&gt;Delivery Man&lt;br&gt;&lt;br&gt;&lt;/p&gt;&lt;p style=&quot;margin:0px;margin-left:4px;&quot;&gt;&lt;br&gt;&lt;/p&gt;" style="verticalAlign=top;align=left;overflow=fill;fontSize=12;fontFamily=Helvetica;html=1;whiteSpace=wrap;movable=1;resizable=1;rotatable=1;deletable=1;editable=1;locked=0;connectable=1;" parent="WIyWlLk6GJQsqaUBKTNV-1" vertex="1">
          <mxGeometry x="360" y="-40" width="190" height="96" as="geometry" />
        </mxCell>
        <mxCell id="ayJBxSCO4M2eOkXbulN4-14" value="" style="endArrow=open;endFill=1;endSize=12;html=1;rounded=0;exitX=0;exitY=1;exitDx=0;exitDy=0;entryX=0.75;entryY=0;entryDx=0;entryDy=0;" parent="WIyWlLk6GJQsqaUBKTNV-1" source="ayJBxSCO4M2eOkXbulN4-13" target="ayJBxSCO4M2eOkXbulN4-0" edge="1">
          <mxGeometry width="160" relative="1" as="geometry">
            <mxPoint x="250" y="180" as="sourcePoint" />
            <mxPoint x="380" y="180" as="targetPoint" />
          </mxGeometry>
        </mxCell>
        <mxCell id="grewiB0idIYlDIHgvyIB-5" value="" style="endArrow=none;dashed=1;html=1;rounded=0;exitX=1.007;exitY=0;exitDx=0;exitDy=0;exitPerimeter=0;" parent="WIyWlLk6GJQsqaUBKTNV-1" source="LDNh3qtt35xQRDf_pYE4-83" edge="1">
          <mxGeometry width="50" height="50" relative="1" as="geometry">
            <mxPoint x="-720" y="-110" as="sourcePoint" />
            <mxPoint x="-440" y="-8" as="targetPoint" />
          </mxGeometry>
        </mxCell>
        <mxCell id="grewiB0idIYlDIHgvyIB-7" value="" style="endArrow=none;dashed=1;html=1;rounded=0;entryX=0.5;entryY=1.056;entryDx=0;entryDy=0;entryPerimeter=0;" parent="WIyWlLk6GJQsqaUBKTNV-1" target="LDNh3qtt35xQRDf_pYE4-115" edge="1">
          <mxGeometry width="50" height="50" relative="1" as="geometry">
            <mxPoint x="300" y="-260" as="sourcePoint" />
            <mxPoint x="350" y="-330" as="targetPoint" />
          </mxGeometry>
        </mxCell>
        <mxCell id="grewiB0idIYlDIHgvyIB-19" value="" style="endArrow=none;html=1;rounded=0;entryX=0.514;entryY=1.077;entryDx=0;entryDy=0;entryPerimeter=0;exitX=0.5;exitY=0;exitDx=0;exitDy=0;" parent="WIyWlLk6GJQsqaUBKTNV-1" source="LDNh3qtt35xQRDf_pYE4-54" target="LDNh3qtt35xQRDf_pYE4-94" edge="1">
          <mxGeometry width="50" height="50" relative="1" as="geometry">
            <mxPoint x="-220" y="150" as="sourcePoint" />
            <mxPoint x="-220" y="-170" as="targetPoint" />
          </mxGeometry>
        </mxCell>
        <mxCell id="grewiB0idIYlDIHgvyIB-20" value="1..*" style="edgeLabel;html=1;align=center;verticalAlign=middle;resizable=0;points=[];" parent="grewiB0idIYlDIHgvyIB-19" vertex="1" connectable="0">
          <mxGeometry x="0.8566" y="-2" relative="1" as="geometry">
            <mxPoint x="-23" as="offset" />
          </mxGeometry>
        </mxCell>
        <mxCell id="grewiB0idIYlDIHgvyIB-21" value="1..*" style="edgeLabel;html=1;align=center;verticalAlign=middle;resizable=0;points=[];" parent="grewiB0idIYlDIHgvyIB-19" vertex="1" connectable="0">
          <mxGeometry x="-0.8119" y="-3" relative="1" as="geometry">
            <mxPoint x="16" as="offset" />
          </mxGeometry>
        </mxCell>
        <mxCell id="grewiB0idIYlDIHgvyIB-22" value="" style="endArrow=none;html=1;rounded=0;exitX=1.021;exitY=0.808;exitDx=0;exitDy=0;exitPerimeter=0;entryX=0;entryY=0.5;entryDx=0;entryDy=0;" parent="WIyWlLk6GJQsqaUBKTNV-1" source="LDNh3qtt35xQRDf_pYE4-101" target="LDNh3qtt35xQRDf_pYE4-109" edge="1">
          <mxGeometry width="50" height="50" relative="1" as="geometry">
            <mxPoint x="200" y="-120" as="sourcePoint" />
            <mxPoint x="440" y="-120" as="targetPoint" />
          </mxGeometry>
        </mxCell>
        <mxCell id="grewiB0idIYlDIHgvyIB-23" value="1..*" style="edgeLabel;html=1;align=center;verticalAlign=middle;resizable=0;points=[];" parent="grewiB0idIYlDIHgvyIB-22" vertex="1" connectable="0">
          <mxGeometry x="-0.8583" y="3" relative="1" as="geometry">
            <mxPoint x="3" y="-15" as="offset" />
          </mxGeometry>
        </mxCell>
        <mxCell id="grewiB0idIYlDIHgvyIB-24" value="1..*" style="edgeLabel;html=1;align=center;verticalAlign=middle;resizable=0;points=[];" parent="grewiB0idIYlDIHgvyIB-22" vertex="1" connectable="0">
          <mxGeometry x="0.7833" relative="1" as="geometry">
            <mxPoint x="6" y="10" as="offset" />
          </mxGeometry>
        </mxCell>
        <mxCell id="grewiB0idIYlDIHgvyIB-25" value="" style="endArrow=none;html=1;rounded=0;entryX=0;entryY=0.5;entryDx=0;entryDy=0;exitX=1;exitY=0.5;exitDx=0;exitDy=0;" parent="WIyWlLk6GJQsqaUBKTNV-1" source="LDNh3qtt35xQRDf_pYE4-91" target="LDNh3qtt35xQRDf_pYE4-101" edge="1">
          <mxGeometry width="50" height="50" relative="1" as="geometry">
            <mxPoint x="-390" y="-110" as="sourcePoint" />
            <mxPoint x="-130" y="-110" as="targetPoint" />
          </mxGeometry>
        </mxCell>
        <mxCell id="grewiB0idIYlDIHgvyIB-26" value="Is composed" style="edgeLabel;html=1;align=center;verticalAlign=middle;resizable=0;points=[];" parent="grewiB0idIYlDIHgvyIB-25" vertex="1" connectable="0">
          <mxGeometry x="-0.1077" y="-1" relative="1" as="geometry">
            <mxPoint as="offset" />
          </mxGeometry>
        </mxCell>
        <mxCell id="grewiB0idIYlDIHgvyIB-27" value="1..*" style="edgeLabel;html=1;align=center;verticalAlign=middle;resizable=0;points=[];" parent="grewiB0idIYlDIHgvyIB-25" vertex="1" connectable="0">
          <mxGeometry x="0.8692" relative="1" as="geometry">
            <mxPoint y="-20" as="offset" />
          </mxGeometry>
        </mxCell>
        <mxCell id="grewiB0idIYlDIHgvyIB-28" value="1..*" style="edgeLabel;html=1;align=center;verticalAlign=middle;resizable=0;points=[];" parent="grewiB0idIYlDIHgvyIB-25" vertex="1" connectable="0">
          <mxGeometry x="-0.8154" y="1" relative="1" as="geometry">
            <mxPoint x="-14" y="11" as="offset" />
          </mxGeometry>
        </mxCell>
        <mxCell id="grewiB0idIYlDIHgvyIB-33" value="" style="endArrow=diamondThin;endFill=0;endSize=24;html=1;rounded=0;exitX=0;exitY=0.5;exitDx=0;exitDy=0;entryX=1;entryY=0.5;entryDx=0;entryDy=0;" parent="WIyWlLk6GJQsqaUBKTNV-1" source="jd4svYWK1x0lvtQsKngE-0" target="LDNh3qtt35xQRDf_pYE4-61" edge="1">
          <mxGeometry width="160" relative="1" as="geometry">
            <mxPoint x="-160" y="385.77" as="sourcePoint" />
            <mxPoint x="-330" y="385.77" as="targetPoint" />
          </mxGeometry>
        </mxCell>
        <mxCell id="grewiB0idIYlDIHgvyIB-34" value="1" style="edgeLabel;html=1;align=center;verticalAlign=middle;resizable=0;points=[];" parent="grewiB0idIYlDIHgvyIB-33" vertex="1" connectable="0">
          <mxGeometry x="-0.7294" y="2" relative="1" as="geometry">
            <mxPoint y="12" as="offset" />
          </mxGeometry>
        </mxCell>
        <mxCell id="grewiB0idIYlDIHgvyIB-35" value="1..*" style="edgeLabel;html=1;align=center;verticalAlign=middle;resizable=0;points=[];" parent="grewiB0idIYlDIHgvyIB-33" vertex="1" connectable="0">
          <mxGeometry x="0.6824" y="1" relative="1" as="geometry">
            <mxPoint y="-18" as="offset" />
          </mxGeometry>
        </mxCell>
        <mxCell id="grewiB0idIYlDIHgvyIB-36" value="Order" style="edgeLabel;html=1;align=center;verticalAlign=middle;resizable=0;points=[];" parent="grewiB0idIYlDIHgvyIB-33" vertex="1" connectable="0">
          <mxGeometry x="-0.1176" y="2" relative="1" as="geometry">
            <mxPoint as="offset" />
          </mxGeometry>
        </mxCell>
        <mxCell id="grewiB0idIYlDIHgvyIB-37" value="" style="endArrow=diamondThin;endFill=0;endSize=24;html=1;rounded=0;entryX=1;entryY=0.5;entryDx=0;entryDy=0;exitX=0.5;exitY=0;exitDx=0;exitDy=0;" parent="WIyWlLk6GJQsqaUBKTNV-1" source="LDNh3qtt35xQRDf_pYE4-41" target="jd4svYWK1x0lvtQsKngE-0" edge="1">
          <mxGeometry width="160" relative="1" as="geometry">
            <mxPoint x="-70" y="630" as="sourcePoint" />
            <mxPoint x="-160" y="510" as="targetPoint" />
            <Array as="points">
              <mxPoint x="160" y="386" />
            </Array>
          </mxGeometry>
        </mxCell>
        <mxCell id="grewiB0idIYlDIHgvyIB-38" value="1" style="edgeLabel;html=1;align=center;verticalAlign=middle;resizable=0;points=[];" parent="grewiB0idIYlDIHgvyIB-37" vertex="1" connectable="0">
          <mxGeometry x="-0.8381" y="-1" relative="1" as="geometry">
            <mxPoint x="9" as="offset" />
          </mxGeometry>
        </mxCell>
        <mxCell id="grewiB0idIYlDIHgvyIB-39" value="1" style="edgeLabel;html=1;align=center;verticalAlign=middle;resizable=0;points=[];" parent="grewiB0idIYlDIHgvyIB-37" vertex="1" connectable="0">
          <mxGeometry x="0.7143" y="1" relative="1" as="geometry">
            <mxPoint x="-20" y="19" as="offset" />
          </mxGeometry>
        </mxCell>
        <mxCell id="grewiB0idIYlDIHgvyIB-40" value="Locate" style="edgeLabel;html=1;align=center;verticalAlign=middle;resizable=0;points=[];" parent="grewiB0idIYlDIHgvyIB-37" vertex="1" connectable="0">
          <mxGeometry x="-0.2952" y="4" relative="1" as="geometry">
            <mxPoint x="4" y="4" as="offset" />
          </mxGeometry>
        </mxCell>
        <mxCell id="grewiB0idIYlDIHgvyIB-41" value="" style="endArrow=diamondThin;endFill=1;endSize=24;html=1;rounded=0;exitX=1;exitY=-0.038;exitDx=0;exitDy=0;entryX=1;entryY=0.5;entryDx=0;entryDy=0;exitPerimeter=0;" parent="WIyWlLk6GJQsqaUBKTNV-1" source="LDNh3qtt35xQRDf_pYE4-109" target="LDNh3qtt35xQRDf_pYE4-33" edge="1">
          <mxGeometry width="160" relative="1" as="geometry">
            <mxPoint x="970" y="-280" as="sourcePoint" />
            <mxPoint x="720" y="-350" as="targetPoint" />
            <Array as="points">
              <mxPoint x="770" y="-280" />
              <mxPoint x="770" y="-230" />
              <mxPoint x="770" y="555" />
            </Array>
          </mxGeometry>
        </mxCell>
        <mxCell id="grewiB0idIYlDIHgvyIB-42" value="1..*" style="edgeLabel;html=1;align=center;verticalAlign=middle;resizable=0;points=[];" parent="grewiB0idIYlDIHgvyIB-41" vertex="1" connectable="0">
          <mxGeometry x="-0.8125" relative="1" as="geometry">
            <mxPoint x="-80" y="-20" as="offset" />
          </mxGeometry>
        </mxCell>
        <mxCell id="grewiB0idIYlDIHgvyIB-43" value="1" style="edgeLabel;html=1;align=center;verticalAlign=middle;resizable=0;points=[];" parent="grewiB0idIYlDIHgvyIB-41" vertex="1" connectable="0">
          <mxGeometry x="0.825" relative="1" as="geometry">
            <mxPoint x="-73" y="-22" as="offset" />
          </mxGeometry>
        </mxCell>
        <mxCell id="grewiB0idIYlDIHgvyIB-45" value="Contains" style="edgeLabel;html=1;align=center;verticalAlign=middle;resizable=0;points=[];" parent="grewiB0idIYlDIHgvyIB-41" vertex="1" connectable="0">
          <mxGeometry x="0.3105" y="2" relative="1" as="geometry">
            <mxPoint x="-2" y="-277" as="offset" />
          </mxGeometry>
        </mxCell>
        <mxCell id="DULDtawbv25T3pyTiJ_M-4" value="" style="endArrow=none;dashed=1;html=1;rounded=0;entryX=0.506;entryY=1;entryDx=0;entryDy=0;entryPerimeter=0;" edge="1" parent="WIyWlLk6GJQsqaUBKTNV-1" target="DULDtawbv25T3pyTiJ_M-13">
          <mxGeometry width="50" height="50" relative="1" as="geometry">
            <mxPoint x="-160" y="-270" as="sourcePoint" />
            <mxPoint x="-140" y="-360" as="targetPoint" />
          </mxGeometry>
        </mxCell>
        <mxCell id="DULDtawbv25T3pyTiJ_M-10" value="ProductIngredient" style="swimlane;fontStyle=1;align=center;verticalAlign=top;childLayout=stackLayout;horizontal=1;startSize=26;horizontalStack=0;resizeParent=1;resizeParentMax=0;resizeLast=0;collapsible=1;marginBottom=0;whiteSpace=wrap;html=1;" vertex="1" parent="WIyWlLk6GJQsqaUBKTNV-1">
          <mxGeometry x="-240" y="-480" width="160" height="86" as="geometry" />
        </mxCell>
        <mxCell id="DULDtawbv25T3pyTiJ_M-11" value="quantityRequired : INT" style="text;strokeColor=none;fillColor=none;align=left;verticalAlign=top;spacingLeft=4;spacingRight=4;overflow=hidden;rotatable=0;points=[[0,0.5],[1,0.5]];portConstraint=eastwest;whiteSpace=wrap;html=1;" vertex="1" parent="DULDtawbv25T3pyTiJ_M-10">
          <mxGeometry y="26" width="160" height="26" as="geometry" />
        </mxCell>
        <mxCell id="DULDtawbv25T3pyTiJ_M-12" value="" style="line;strokeWidth=1;fillColor=none;align=left;verticalAlign=middle;spacingTop=-1;spacingLeft=3;spacingRight=3;rotatable=0;labelPosition=right;points=[];portConstraint=eastwest;strokeColor=inherit;" vertex="1" parent="DULDtawbv25T3pyTiJ_M-10">
          <mxGeometry y="52" width="160" height="8" as="geometry" />
        </mxCell>
        <mxCell id="DULDtawbv25T3pyTiJ_M-13" value="unit : String" style="text;strokeColor=none;fillColor=none;align=left;verticalAlign=top;spacingLeft=4;spacingRight=4;overflow=hidden;rotatable=0;points=[[0,0.5],[1,0.5]];portConstraint=eastwest;whiteSpace=wrap;html=1;" vertex="1" parent="DULDtawbv25T3pyTiJ_M-10">
          <mxGeometry y="60" width="160" height="26" as="geometry" />
        </mxCell>
      </root>
    </mxGraphModel>
  </diagram>
</mxfile>
